<?xml version="1.0" encoding="iso-8859-1"?>
<!-- Uploaded to: SVG Repo, www.svgrepo.com, Generator: SVG Repo Mixer Tools -->
<svg height="800px" width="800px" version="1.1" id="Layer_1" xmlns="http://www.w3.org/2000/svg" xmlns:xlink="http://www.w3.org/1999/xlink" 
	 viewBox="0 0 512 512" xml:space="preserve">
<g transform="translate(1 1)">
	<g>
		<path style="fill:#FFE100;" d="M459.8,400.067V212.333c0-113.493-91.307-204.8-204.8-204.8S50.2,98.84,50.2,212.333v187.733H459.8
			z"/>
		<path style="fill:#FFE100;" d="M459.8,502.467h-85.333v-102.4H459.8c18.773,0,34.133,15.36,34.133,34.133v34.133
			C493.933,487.107,478.573,502.467,459.8,502.467"/>
		<polygon style="fill:#FFE100;" points="255,502.467 374.467,502.467 374.467,400.067 255,400.067 		"/>
		<polygon style="fill:#FFE100;" points="135.533,502.467 255,502.467 255,400.067 135.533,400.067 		"/>
		<path style="fill:#FFE100;" d="M135.533,502.467H50.2c-18.773,0-34.133-15.36-34.133-34.133V434.2
			c0-18.773,15.36-34.133,34.133-34.133h85.333V502.467z"/>
	</g>
	<polygon style="fill:#E4667F;" points="255,84.333 295.107,164.547 383,178.2 320.707,241.347 340.333,331.8 255,289.133 
		169.667,331.8 189.293,241.347 127,178.2 214.893,164.547 	"/>
	<polygon style="fill:#00DA6C;" points="255,250.733 218.307,269.507 226.84,231.107 197.827,202.093 237.08,196.12 255,160.28 
		272.92,196.12 312.173,202.093 283.16,231.107 291.693,269.507 	"/>
	<g>
		<path style="fill:#FFA800;" d="M459.8,400.067h-25.6c18.773,0,34.133,15.36,34.133,34.133v34.133
			c0,18.773-15.36,34.133-34.133,34.133h25.6c18.773,0,34.133-15.36,34.133-34.133V434.2
			C493.933,415.427,478.573,400.067,459.8,400.067"/>
		<path style="fill:#FFA800;" d="M255,7.533c-4.267,0-8.533,0-12.8,0.853c107.52,5.973,192,95.573,192,203.947v187.733h25.6V212.333
			C459.8,98.84,368.493,7.533,255,7.533"/>
	</g>
	<g>
		<path style="fill:#FFFFFF;" d="M50.2,400.067h25.6c-18.773,0-34.133,15.36-34.133,34.133v34.133
			c0,18.773,15.36,34.133,34.133,34.133H50.2c-18.773,0-34.133-15.36-34.133-34.133V434.2
			C16.067,415.427,31.427,400.067,50.2,400.067"/>
		<path style="fill:#FFFFFF;" d="M255,7.533c4.267,0,8.533,0,12.8,0.853c-107.52,5.973-192,95.573-192,203.947v187.733H50.2V212.333
			C50.2,98.84,141.507,7.533,255,7.533"/>
	</g>
	<path d="M459.8,408.6H50.2c-5.12,0-8.533-3.413-8.533-8.533V212.333C41.667,94.573,137.24-1,255-1s213.333,95.573,213.333,213.333
		v187.733C468.333,405.187,464.92,408.6,459.8,408.6z M58.733,391.533h392.533v-179.2c0-108.373-87.893-196.267-196.267-196.267
		S58.733,103.96,58.733,212.333V391.533z"/>
	<path d="M459.8,511h-85.333c-5.12,0-8.533-3.413-8.533-8.533v-102.4c0-5.12,3.413-8.533,8.533-8.533H459.8
		c23.893,0,42.667,18.773,42.667,42.667v34.133C502.467,492.227,483.693,511,459.8,511z M383,493.933h76.8
		c14.507,0,25.6-11.093,25.6-25.6V434.2c0-14.507-11.093-25.6-25.6-25.6H383V493.933z"/>
	<path d="M374.467,511H255c-5.12,0-8.533-3.413-8.533-8.533v-102.4c0-5.12,3.413-8.533,8.533-8.533h119.467
		c5.12,0,8.533,3.413,8.533,8.533v102.4C383,507.587,379.587,511,374.467,511z M263.533,493.933h102.4V408.6h-102.4V493.933z"/>
	<path d="M255,511H135.533c-5.12,0-8.533-3.413-8.533-8.533v-102.4c0-5.12,3.413-8.533,8.533-8.533H255
		c5.12,0,8.533,3.413,8.533,8.533v102.4C263.533,507.587,260.12,511,255,511z M144.067,493.933h102.4V408.6h-102.4V493.933z"/>
	<path d="M135.533,511H50.2c-23.893,0-42.667-18.773-42.667-42.667V434.2c0-23.893,18.773-42.667,42.667-42.667h85.333
		c5.12,0,8.533,3.413,8.533,8.533v102.4C144.067,507.587,140.653,511,135.533,511z M50.2,408.6c-14.507,0-25.6,11.093-25.6,25.6
		v34.133c0,14.507,11.093,25.6,25.6,25.6H127V408.6H50.2z"/>
	<path d="M340.333,340.333c-1.707,0-2.56,0-3.413-0.853L255,298.52l-81.92,40.107c-2.56,1.707-6.827,0.853-9.387-0.853
		c-2.56-1.707-3.413-5.12-3.413-8.533l18.773-85.333L119.32,183.32c-2.56-2.56-3.413-5.973-1.707-8.533
		c0.853-3.413,3.413-5.12,6.827-5.973l82.773-11.947l38.4-76.8c2.56-5.973,12.8-5.973,15.36,0l38.4,76.8l82.773,11.947
		c3.413,0.853,5.973,2.56,6.827,5.973c0.853,3.413,0,5.973-1.707,8.533l-59.733,60.587l18.773,85.333
		c0.853,3.413-0.853,6.827-3.413,8.533C343.747,339.48,342.04,340.333,340.333,340.333z M255,280.6c1.707,0,2.56,0,3.413,0.853
		l69.12,34.987l-16.213-72.533c-0.853-2.56,0-5.973,2.56-7.68l51.2-52.053l-70.827-10.24c-2.56,0-5.12-2.56-5.973-4.267L255,103.107
		l-32.427,65.707c-0.853,2.56-3.413,4.267-5.973,4.267l-70.827,10.24l51.2,52.053c1.707,1.707,2.56,5.12,2.56,7.68l-16.213,72.533
		l69.12-34.133C252.44,280.6,253.293,280.6,255,280.6z"/>
	<path d="M291.693,278.04c-1.707,0-2.56,0-3.413-0.853L255,260.12l-32.427,16.213c-2.56,1.707-6.827,0.853-9.387-0.853
		c-2.56-1.707-3.413-5.12-3.413-8.533l7.68-33.28l-25.6-25.6c-2.56-2.56-3.413-5.973-1.707-8.533
		c0.853-3.413,3.413-5.12,6.827-5.973l34.133-5.12l16.213-31.573c1.707-2.56,4.267-5.12,7.68-5.12l0,0
		c3.413,0,5.973,1.707,7.68,5.12l16.213,31.573l34.133,5.12c3.413,0.853,5.973,2.56,6.827,5.973c0.853,3.413,0,5.973-1.707,8.533
		l-25.6,25.6l6.827,32.427c0.853,0.853,0.853,2.56,0.853,3.413C300.227,273.773,296.813,278.04,291.693,278.04L291.693,278.04z
		 M255,242.2c1.707,0,2.56,0,3.413,0.853l20.48,10.24l-4.267-20.48c-0.853-2.56,0-5.973,2.56-7.68l17.067-17.067l-22.187-3.413
		c-2.56,0-5.12-2.56-5.973-4.267L255,179.053l-10.24,20.48c-0.853,2.56-3.413,4.267-5.973,4.267l-22.187,3.413l17.067,17.067
		c1.707,1.707,2.56,5.12,2.56,7.68l-4.267,20.48l20.48-10.24C252.44,243.053,254.147,242.2,255,242.2z"/>
</g>
</svg>