<?xml version="1.0" encoding="UTF-8"?>
<svg xmlns="http://www.w3.org/2000/svg" viewBox="0 0 100 100">
  <defs>
    <style>
      .cls-1, .cls-2 {
        fill: none;
        stroke: #102c3c;
        stroke-linecap: round;
        stroke-linejoin: round;
      }

      .cls-2 {
        stroke-dasharray: 0 2 2 0 7 6;
      }

      .cls-3 {
        fill: #de3340;
        mix-blend-mode: multiply;
      }

      .cls-4 {
        isolation: isolate;
      }
    </style>
  </defs>
  <g class="cls-4">
    <g id="Layer_1" data-name="Layer 1">
      <g>
        <g>
          <g>
            <ellipse class="cls-1" cx="9.55" cy="71.48" rx="4.17" ry="16.27"/>
            <path class="cls-1" d="M9.55,87.75c12.04-2.32,27.06-4.17,44.34-4,15.32.16,28.77,1.87,39.83,4,1.46-2.67,4.17-8.46,4.17-16.27,0-8.98-1.86-16.27-4.17-16.27-12.08,1.46-25.66,2.47-40.5,2.53-16.11.07-30.77-.97-43.67-2.53"/>
          </g>
          <g>
            <ellipse class="cls-1" cx="51.63" cy="44.55" rx="22.44" ry="4"/>
            <path class="cls-1" d="M74.07,44.55v-17.87c0-2.21-10.05-4-22.44-4s-22.44,1.79-22.44,4v17.87"/>
            <path class="cls-1" d="M51.63,6.82L10.1,21.28c-1.49.52-1.6,2.56-.19,3.24l18.94,9.09"/>
            <path class="cls-1" d="M51.63,6.82l41.53,14.46c1.49.52,1.6,2.56.19,3.24l-18.94,9.09"/>
            <line class="cls-1" x1="84.92" y1="18.41" x2="84.92" y2="35.62"/>
            <ellipse class="cls-1" cx="84.92" cy="39.75" rx="2.32" ry="4.13"/>
          </g>
          <g>
            <polyline class="cls-1" points="40.49 84.09 36.17 97.3 43.07 93.66 46.59 99.5 51.63 83.92"/>
            <polyline class="cls-1" points="62.78 84.09 67.1 97.3 60.2 93.66 56.67 99.5 51.63 83.92"/>
          </g>
          <g>
            <path class="cls-1" d="M60.5,83.92s.02-.06.02-.08c.91-2.98,1.46-7.42,1.46-12.37,0-5.83-.78-10.94-1.96-13.8,0-.02-.02-.02-.02-.04-.64-1.53-1.38-2.41-2.18-2.41s-1.59.92-2.23,2.49v.02"/>
            <path class="cls-1" d="M41.28,57.55c.62-1.47,1.36-2.33,2.14-2.33s1.57.9,2.2,2.45t.02.04c1.15,2.86,1.94,7.95,1.94,13.76,0,4.93-.58,9.34-1.44,12.33"/>
          </g>
        </g>
        <path class="cls-2" d="M18.35,73.2c.2-4.69-.13-8.94-.82-11.94"/>
        <path class="cls-3" d="M65.32,73.62c0,.23,0,.46-.01.68-.06,4.5-.6,8.5-1.45,11.26,0,.01-.02.05-.02.07-2.16-.08-4.37-.14-6.61-.16-2.6-.02-5.14-.01-7.63.05.8-2.97,1.32-7.2,1.32-11.9,0-5.8-.78-10.89-1.93-13.75t-.01-.03c2.49.05,5.01.07,7.57.06.8,0,1.6-.01,2.39-.02,1.49-.01,2.96-.04,4.42-.08,0,0,.01.02.01.03.07.18.14.37.21.56.08.2.15.4.21.61.88,2.76,1.46,6.89,1.52,11.54.01.36.01.72.01,1.08Z"/>
        <polyline class="cls-2" points="56.6 12.67 51.73 10.91 44.01 13.59"/>
      </g>
    </g>
  </g>
</svg>