<?xml version="1.0" encoding="UTF-8"?>
<svg xmlns="http://www.w3.org/2000/svg" viewBox="0 0 100 100">
  <defs>
    <style>
      .cls-1 {
        fill: #de3340;
      }

      .cls-2, .cls-3, .cls-4 {
        fill: none;
      }

      .cls-2, .cls-4 {
        stroke: #102c3c;
        stroke-linecap: round;
        stroke-linejoin: round;
      }

      .cls-3 {
        stroke: #102b3b;
        stroke-miterlimit: 10;
      }

      .cls-4 {
        stroke-dasharray: 0 2 2 0 7 6;
      }

      .cls-5 {
        isolation: isolate;
      }

      .cls-6 {
        mix-blend-mode: multiply;
      }
    </style>
  </defs>
  <g class="cls-5">
    <g id="Layer_1" data-name="Layer 1">
      <rect class="cls-2" x=".42" y="11.96" width="99.34" height="73.33" rx="6.06" ry="6.06"/>
      <line class="cls-2" x1=".42" y1="24.71" x2="99.37" y2="24.71"/>
      <circle class="cls-3" cx="7.71" cy="18.57" r="1.27"/>
      <circle class="cls-3" cx="13.25" cy="18.57" r="1.27"/>
      <circle class="cls-3" cx="18.76" cy="18.57" r="1.27"/>
      <g>
        <path class="cls-2" d="M39.12,62.68v-8.91c0-1.42,1.53-2.33,2.78-1.63l8.03,4.45c1.28.71,1.28,2.56,0,3.27l-8.03,4.45c-1.25.69-2.78-.21-2.78-1.63Z"/>
        <path class="cls-2" d="M61.39,45.4c1.25,1,2.04,2.53,2.04,4.24v8.81"/>
        <path class="cls-2" d="M63.43,57.24v9.57c0,3-2.43,5.42-5.42,5.42h-27.84c-3,0-5.42-2.43-5.42-5.42v-17.17c0-3,2.43-5.42,5.42-5.42h15.16"/>
        <line class="cls-2" x1="47.79" y1="75.08" x2="47.48" y2="75.08"/>
        <line class="cls-2" x1="55.35" y1="75.08" x2="50.92" y2="75.08"/>
        <path class="cls-2" d="M28.54,55.47v-5.12c0-1.29,1.04-2.33,2.33-2.33h.85"/>
        <line class="cls-2" x1="28.54" y1="58.97" x2="28.54" y2="58.8"/>
        <polyline class="cls-2" points="63.43 53.09 75.26 46.41 75.26 70.03 63.43 63.36"/>
        <line class="cls-2" x1="68.22" y1="53.58" x2="71.6" y2="51.67"/>
        <path class="cls-2" d="M60.2,39.92l1.65-1.21-2.09-3.62-1.87.83-2.03-1.17-.22-2.04h-4.18v.02s0,0,0,0l-.22,2.01-.95.55-1.09.63-1.88-.83-2.09,3.61,1.65,1.21v2.35l-1.65,1.21.75,1.29,1.34,2.32,1.87-.83,2.03,1.17.22,2.04h4.17l.22-2.04,2.03-1.17,1.87.83,2.09-3.62-1.65-1.21v-2.35ZM53.55,44.54c-2.17,0-3.86-1.99-3.36-4.25.28-1.27,1.32-2.29,2.59-2.56,1.48-.32,2.85.31,3.6,1.4.38.61.59,1.26.61,1.96,0,1.9-1.54,3.45-3.44,3.45Z"/>
        <g class="cls-6">
          <path class="cls-1" d="M40.65,63.63v-10.03c0-1.6,1.72-2.62,3.13-1.84l9.05,5.01c1.45.8,1.45,2.88,0,3.68l-9.05,5.01c-1.4.78-3.13-.24-3.13-1.84Z"/>
        </g>
      </g>
      <line class="cls-4" x1="77.47" y1="15.95" x2="88.87" y2="15.95"/>
    </g>
  </g>
</svg>