<?xml version="1.0" encoding="UTF-8"?>
<svg xmlns="http://www.w3.org/2000/svg" viewBox="0 0 100 100">
  <defs>
    <style>
      .cls-1 {
        fill: #de3340;
      }

      .cls-2, .cls-3 {
        stroke-linecap: round;
        stroke-linejoin: round;
      }

      .cls-2, .cls-3, .cls-4 {
        fill: none;
        stroke: #102c3c;
      }

      .cls-3 {
        stroke-dasharray: 0 2 2 0 7 6;
      }

      .cls-4 {
        stroke-miterlimit: 10;
      }

      .cls-5 {
        isolation: isolate;
      }

      .cls-6 {
        mix-blend-mode: multiply;
      }
    </style>
  </defs>
  <g class="cls-5">
    <g id="Layer_1" data-name="Layer 1">
      <line class="cls-3" x1="51.82" y1="7.39" x2="37.58" y2="7.39"/>
      <g>
        <path class="cls-2" d="M60.09,6.86h15.36c3.57,0,6.46,2.89,6.46,6.46v39.65"/>
        <path class="cls-2" d="M81.9,84.02v8.61c0,3.57-2.89,6.46-6.46,6.46H18.97c-3.57,0-6.46-2.89-6.46-6.46V13.32c0-3.57,2.89-6.46,6.46-6.46h13.27"/>
        <g>
          <g>
            <g>
              <line class="cls-2" x1="36.98" y1="26.19" x2="50.81" y2="26.19"/>
              <line class="cls-2" x1="36.98" y1="30.31" x2="71.42" y2="30.31"/>
            </g>
            <g>
              <polyline class="cls-2" points="25.76 27.19 27.53 29.21 32.77 23.17"/>
              <polyline class="cls-2" points="28.22 23.55 22.81 23.55 22.81 32.43 26.11 32.43 28.95 32.43 31.7 32.43 31.7 29.69"/>
            </g>
          </g>
          <g>
            <g>
              <line class="cls-2" x1="36.98" y1="43.26" x2="50.81" y2="43.26"/>
              <line class="cls-2" x1="36.98" y1="47.38" x2="71.42" y2="47.38"/>
            </g>
            <g>
              <polyline class="cls-2" points="25.76 44.27 27.53 46.28 32.77 40.24"/>
              <polyline class="cls-2" points="28.22 40.62 22.81 40.62 22.81 49.51 26.11 49.51 28.95 49.51 31.7 49.51 31.7 46.76"/>
            </g>
          </g>
          <g>
            <g>
              <line class="cls-2" x1="36.98" y1="60.33" x2="50.81" y2="60.33"/>
              <line class="cls-2" x1="36.98" y1="64.45" x2="71.42" y2="64.45"/>
            </g>
            <g>
              <polyline class="cls-2" points="25.76 61.34 27.53 63.35 32.77 57.32"/>
              <polyline class="cls-2" points="28.22 57.7 22.81 57.7 22.81 66.58 26.11 66.58 28.95 66.58 31.7 66.58 31.7 63.83"/>
            </g>
          </g>
          <g>
            <g>
              <line class="cls-2" x1="36.98" y1="77.41" x2="47.9" y2="77.41"/>
              <line class="cls-2" x1="36.98" y1="81.53" x2="64.17" y2="81.53"/>
            </g>
            <g>
              <polyline class="cls-2" points="25.76 78.41 27.53 80.43 32.77 74.39"/>
              <polyline class="cls-2" points="28.22 74.77 22.81 74.77 22.81 83.65 26.11 83.65 28.95 83.65 31.7 83.65 31.7 80.9"/>
            </g>
          </g>
        </g>
        <g>
          <path class="cls-4" d="M78.45,70.02l-2.19,3.16.4,3.39-3.48,1.07.32,3.5-3.24.72.17,3-2.86.89-1.36,1.96-.17,6.53,6.5-2.14,12.25-17.67c3.33.55,6.84-.8,8.89-3.76,2.84-4.1,1.82-9.72-2.28-12.55-4.1-2.84-9.72-1.82-12.55,2.28-2.05,2.96-2.09,6.72-.4,9.65Z"/>
          <circle class="cls-4" cx="87.81" cy="63.29" r="2.68"/>
        </g>
        <path class="cls-2" d="M31.16,10.56l2.38-8.2c.27-.93,1.13-1.57,2.1-1.56l21.27.15c.99,0,1.85.68,2.09,1.64l2.04,8.05c.35,1.37-.69,2.7-2.1,2.7h-25.69c-1.45,0-2.49-1.39-2.08-2.78Z"/>
        <g class="cls-6">
          <path class="cls-1" d="M80.3,71.21l-2.19,3.16.4,3.39-3.48,1.07.32,3.5-3.24.72.17,3-2.86.89-1.36,1.96-.17,6.53,6.5-2.14,12.25-17.67c3.33.55,6.84-.8,8.89-3.76,2.84-4.1,1.82-9.72-2.28-12.55-4.1-2.84-9.72-1.82-12.55,2.28-2.05,2.96-2.09,6.72-.4,9.65Z"/>
        </g>
      </g>
      <path class="cls-3" d="M69.27,12.61h4.58c1.26,0,2.28,1.14,2.28,2.54v5.7"/>
      <path class="cls-3" d="M24.76,93.48h-4.98c-1.26,0-2.28-1.14-2.28-2.54v-3.92"/>
    </g>
  </g>
</svg>