<?xml version="1.0" encoding="UTF-8"?>
<svg xmlns="http://www.w3.org/2000/svg" viewBox="0 0 100 100">
  <defs>
    <style>
      .cls-1, .cls-2 {
        fill: none;
        stroke: #102c3c;
        stroke-linecap: round;
        stroke-linejoin: round;
      }

      .cls-2 {
        stroke-dasharray: 0 2 2 0 7 6;
      }

      .cls-3 {
        fill: #de3340;
        mix-blend-mode: multiply;
      }

      .cls-4 {
        isolation: isolate;
      }
    </style>
  </defs>
  <g class="cls-4">
    <g id="Layer_1" data-name="Layer 1">
      <g>
        <g>
          <polyline id="_Trazado_" data-name="&amp;lt;Trazado&amp;gt;" class="cls-1" points="50 22.85 65.97 22.85 65.97 13.27"/>
          <circle class="cls-1" cx="65.97" cy="6.89" r="6.39"/>
        </g>
        <g>
          <circle class="cls-1" cx="65.97" cy="93.11" r="6.39"/>
          <polyline class="cls-1" points="65.97 86.73 65.97 77.15 50 77.15"/>
        </g>
        <g>
          <circle class="cls-1" cx="93.11" cy="50" r="6.39"/>
          <line class="cls-1" x1="66.86" y1="50" x2="86.73" y2="50"/>
        </g>
        <g>
          <circle class="cls-1" cx="88.32" cy="78.74" r="6.39"/>
          <polyline class="cls-1" points="83.81 74.23 75.55 67.56 67.56 67.56 60.48 62.08"/>
        </g>
        <g>
          <circle class="cls-1" cx="88.32" cy="21.26" r="6.39"/>
          <polyline class="cls-1" points="83.87 25.84 75.55 32.44 67.56 32.44 60.53 37.87"/>
        </g>
      </g>
      <g>
        <path class="cls-1" d="M53.19.5h-9.58c-1.76,0-3.19,1.43-3.19,3.19v2.25c0,1.29-.78,2.46-1.97,2.95l-9.35,3.87c-1.19.49-2.57.22-3.48-.69l-1.59-1.59c-1.25-1.25-3.27-1.25-4.52,0l-9.03,9.03c-1.25,1.25-1.25,3.27,0,4.52l1.59,1.59c.91.91,1.19,2.29.69,3.48l-3.87,9.35c-.49,1.19-1.66,1.97-2.95,1.97h-2.25c-1.76,0-3.19,1.43-3.19,3.19v12.77c0,1.76,1.43,3.19,3.19,3.19h2.25c1.29,0,2.46.78,2.95,1.97l3.87,9.35c.49,1.19.22,2.57-.69,3.48l-1.59,1.59c-1.25,1.25-1.25,3.27,0,4.52l9.03,9.03c1.25,1.25,3.27,1.25,4.52,0l1.59-1.59c.91-.91,2.29-1.19,3.48-.69l9.35,3.87c1.19.49,1.97,1.66,1.97,2.95v2.25c0,1.76,1.43,3.19,3.19,3.19h9.58"/>
        <path class="cls-1" d="M50.12,77.11c-14.98,0-27.12-12.14-27.12-27.12s12.14-27.12,27.12-27.12c.09,0,.18,0,.27,0"/>
      </g>
      <path class="cls-2" d="M18.82,58.07c-1.2-4.39-1.31-9.13-.1-13.85.02-.09.04-.17.07-.26"/>
      <circle class="cls-1" cx="52.28" cy="49.96" r="14.58"/>
      <circle class="cls-3" cx="54.76" cy="51.85" r="14.58"/>
      <path class="cls-2" d="M69.67,95.16c-1.4,1.61-3.67,2.11-5.45,1.07-.82-.48-1.41-1.21-1.74-2.06"/>
      <path class="cls-2" d="M91.88,80.88c-1.4,1.61-3.67,2.11-5.45,1.07-.82-.48-1.41-1.21-1.74-2.06"/>
      <path class="cls-2" d="M96.71,52.12c-1.4,1.61-3.67,2.11-5.45,1.07-.82-.48-1.41-1.21-1.74-2.06"/>
      <path class="cls-2" d="M91.91,23.16c-1.4,1.61-3.67,2.11-5.45,1.07-.82-.48-1.41-1.21-1.74-2.06"/>
      <path class="cls-2" d="M69.54,8.82c-1.4,1.61-3.67,2.11-5.45,1.07-.82-.48-1.41-1.21-1.74-2.06"/>
    </g>
  </g>
</svg>