<?xml version="1.0" encoding="UTF-8"?>
<svg xmlns="http://www.w3.org/2000/svg" viewBox="0 0 100 100">
  <defs>
    <style>
      .cls-1 {
        stroke-miterlimit: 10;
      }

      .cls-1, .cls-2, .cls-3 {
        fill: none;
        stroke: #102c3c;
      }

      .cls-1, .cls-3 {
        stroke-width: 1.2px;
      }

      .cls-2 {
        stroke-dasharray: 0 2 2 0 7 6;
      }

      .cls-2, .cls-3 {
        stroke-linecap: round;
        stroke-linejoin: round;
      }

      .cls-4 {
        fill: #de3340;
        mix-blend-mode: multiply;
      }

      .cls-5 {
        isolation: isolate;
      }
    </style>
  </defs>
  <g class="cls-5">
    <g id="Layer_1" data-name="Layer 1">
      <g>
        <path class="cls-1" d="M19.05,23.08H6.75c-3.45,0-6.25,2.81-6.25,6.25v49.01c0,3.45,2.81,6.25,6.25,6.25h86.49c3.45,0,6.25-2.81,6.25-6.25V29.33c0-3.45-2.81-6.25-6.25-6.25h-31.02"/>
        <path class="cls-1" d="M62.23,32.93h25.82c.53,0,.98.43.98.98v14.9c0,.54-.44.98-.98.98h-37.32c-.54,0-.98-.43-.98-.98v-6.57"/>
        <g>
          <path class="cls-1" d="M43.27,9.54v10.18h-8.27c-1.14,0-2.06.93-2.06,2.06v10.6h-11.68c-1.23,0-2.21-.99-2.21-2.2V3.32c0-1.22.99-2.21,2.21-2.21h13.44l8.57,8.43Z"/>
          <path class="cls-1" d="M43.45,9.9h-7.66c-.7,0-1.27-.58-1.27-1.3V1.06"/>
        </g>
        <line class="cls-3" x1="17.22" y1="48.04" x2="33.18" y2="48.04"/>
        <line class="cls-3" x1="49.75" y1="56.91" x2="88.74" y2="56.91"/>
        <line class="cls-3" x1="49.75" y1="63.39" x2="88.74" y2="63.39"/>
        <line class="cls-3" x1="30.5" y1="98.94" x2="69.5" y2="98.94"/>
        <g>
          <line class="cls-3" x1="56.6" y1="84.61" x2="58.52" y2="98.52"/>
          <line class="cls-3" x1="41.48" y1="98.53" x2="43.22" y2="84.6"/>
        </g>
        <line class="cls-3" x1=".89" y1="72.38" x2="99.31" y2="72.38"/>
        <line class="cls-3" x1="17.22" y1="53.54" x2="33.18" y2="53.54"/>
        <path class="cls-1" d="M39.93,42.24v17.46c0,1.31-1.06,2.36-2.35,2.36h-7.97c-.1-.01-.19.04-.24.11l-3.93,5.29c-.2.27-.61.12-.59-.22l.03-4.86c0-.16-.14-.3-.3-.3l-11.85-.02c-1.14,0-2.06-.93-2.06-2.06v-18.15c0-1.3,1.07-2.36,2.36-2.36h19.94"/>
        <path class="cls-1" d="M43.27,19.71h16.89c1.14,0,2.06.93,2.06,2.06v18.41c0,1.14-.93,2.06-2.06,2.06h-25.16c-1.14,0-2.06-.93-2.06-2.06v-7.81"/>
        <path class="cls-1" d="M51.68,31.45l-7.83,4.45c-.26.15-.6-.04-.6-.35v-8.91c0-.06.01-.11.03-.16.1-.2.36-.31.57-.19l7.83,4.45c.27.16.27.55,0,.7Z"/>
        <rect class="cls-4" x="36.19" y="16.22" width="29.82" height="22.71" rx="1.07" ry="1.07"/>
      </g>
      <path class="cls-2" d="M89.01,27.93h4.3c.93,0,1.68.69,1.68,1.53v6.65"/>
      <line class="cls-2" x1="22.81" y1="77.74" x2="8.57" y2="77.74"/>
    </g>
  </g>
</svg>