<?xml version="1.0" encoding="UTF-8"?>
<svg xmlns="http://www.w3.org/2000/svg" viewBox="0 0 100 100">
  <defs>
    <style>
      .cls-1 {
        fill: #de3340;
      }

      .cls-2, .cls-3 {
        fill: none;
        stroke: #102c3c;
        stroke-linecap: round;
        stroke-linejoin: round;
      }

      .cls-3 {
        stroke-dasharray: 0 2 2 0 7 6;
      }

      .cls-4 {
        isolation: isolate;
      }

      .cls-5 {
        mix-blend-mode: multiply;
      }
    </style>
  </defs>
  <g class="cls-4">
    <g id="Layer_1" data-name="Layer 1">
      <g>
        <g>
          <path class="cls-2" d="M11.68,29.68H3.28c-.98,0-1.78.8-1.78,1.78v52.77c0,.98.8,1.78,1.78,1.78h69.22"/>
          <path class="cls-2" d="M82.84,29.68h8.39c.98,0,1.78.8,1.78,1.78v41.73"/>
          <path class="cls-2" d="M52.18,21.16h28.23c1.34,0,2.42,1.09,2.42,2.43v45.31"/>
          <path class="cls-2" d="M42.36,21.16H14.1c-1.34,0-2.42,1.09-2.42,2.43v50.78c0,1.34,1.09,2.43,2.42,2.43h57.03"/>
          <line class="cls-2" x1="47.26" y1="76.79" x2="47.26" y2="31.62"/>
          <line class="cls-2" x1="39.62" y1="35" x2="19.32" y2="35"/>
          <line class="cls-2" x1="39.62" y1="44.66" x2="19.32" y2="44.66"/>
          <line class="cls-2" x1="39.62" y1="54.32" x2="19.32" y2="54.32"/>
          <line class="cls-2" x1="39.62" y1="63.98" x2="19.32" y2="63.98"/>
          <line class="cls-2" x1="54.9" y1="35" x2="75.2" y2="35"/>
          <line class="cls-2" x1="54.9" y1="44.66" x2="75.2" y2="44.66"/>
          <line class="cls-2" x1="54.9" y1="54.32" x2="75.2" y2="54.32"/>
          <line class="cls-2" x1="54.9" y1="63.98" x2="62.87" y2="63.98"/>
        </g>
        <g>
          <path class="cls-2" d="M51.97,21.1c0,2.63-2.11,4.76-4.71,4.76s-4.71-2.13-4.71-4.76,2.11-4.76,4.71-4.76,4.71,2.13,4.71,4.76Z"/>
          <path class="cls-2" d="M30.83,7.88C34.97,3.53,40.8.81,47.26.81s12.29,2.71,16.43,7.06"/>
          <path class="cls-2" d="M36.22,13.03c2.78-2.93,6.7-4.75,11.03-4.75s8.26,1.83,11.04,4.75"/>
          <polygon class="cls-2" points="97.8 75.7 69.86 63.9 73.61 94.01 81.13 88.32 89.35 99.19 98.5 92.26 90.28 81.39 97.8 75.7"/>
        </g>
      </g>
      <g class="cls-5">
        <polygon class="cls-1" points="94.09 77.19 67.5 65.95 71.07 94.61 78.22 89.19 86.04 99.54 94.75 92.94 86.93 82.6 94.09 77.19"/>
      </g>
      <path class="cls-3" d="M11.6,81.33h-3.85c-.98,0-1.78-.8-1.78-1.78v-7.73"/>
      <line class="cls-3" x1="89.12" y1="33.97" x2="89.12" y2="48.22"/>
    </g>
  </g>
</svg>