<?xml version="1.0" encoding="UTF-8"?>
<svg xmlns="http://www.w3.org/2000/svg" viewBox="0 0 100 100">
  <defs>
    <style>
      .cls-1, .cls-2 {
        fill: none;
        stroke: #102c3c;
        stroke-linecap: round;
        stroke-linejoin: round;
      }

      .cls-2 {
        stroke-dasharray: 0 2 2 0 7 6;
      }

      .cls-3 {
        fill: #de3340;
        mix-blend-mode: multiply;
      }

      .cls-4 {
        isolation: isolate;
      }
    </style>
  </defs>
  <g class="cls-4">
    <g id="Layer_1" data-name="Layer 1">
      <g>
        <g>
          <line class="cls-1" x1="50.28" y1="9.18" x2="50.26" y2="9.18"/>
          <path class="cls-1" d="M91.45,9.18h5.94c1.16,0,2.1.94,2.1,2.1v58.73c0,1.16-.94,2.1-2.1,2.1h-5.68"/>
          <path class="cls-1" d="M9.09,9.18H2.6c-1.16,0-2.1.94-2.1,2.1v58.73c0,1.16.94,2.1,2.1,2.1h62.47c-.71-1.3-1.23-2.73-1.52-4.23"/>
          <path class="cls-1" d="M72.11,66.3c.68,2.63,2.86,4.66,5.58,5.12"/>
          <path class="cls-1" d="M50.28,71.75c-11.73-4.33-24.78-6.58-39.1-6.79-1.15-.02-2.08-.94-2.08-2.1V3.88c0-1.06.8-1.97,1.86-2.09,16.3-1.81,29.63.24,39.33,7.03v62.93Z"/>
          <path class="cls-1" d="M85.89,65.05c.01-.17.02-.35.02-.53,0-3.88-3.14-7.02-7.02-7.02s-7.01,3.14-7.01,7.02c0,.13,0,.27.02.4.02.48.09.93.22,1.38"/>
          <path class="cls-1" d="M91.45,3.88v53.43c-2.63-4.48-7.49-7.49-13.06-7.49-4.97,0-9.37,2.39-12.12,6.08-1.89,2.52-3.01,5.65-3.01,9.05,0,1,.1,1.99.28,2.94-4.59,1.01-9.01,2.32-13.26,3.87h-.01s-.01.01-.01.01V8.83s.01,0,.01-.01C59.97,2.03,73.31-.03,89.6,1.79c1.06.12,1.86,1.02,1.86,2.09Z"/>
          <path class="cls-1" d="M80.18,71.41c3.09-.58,5.46-3.15,5.71-6.34"/>
          <path class="cls-1" d="M97,95.03c.11.43-.27.74-.57.47l-7.31-6.75c-.2-.18-.48-.11-.55.15l-3.12,9.68c-.13.4-.61.33-.72-.1l-4.82-18.49c4.78-.48,8.9-3.17,11.32-7.06l5.76,22.1Z"/>
          <path class="cls-1" d="M66.33,74.06l-5.27,20.27c-.12.42.26.73.57.47l7.35-6.59c.21-.17.48-.1.57.16l3.08,9.47c.12.39.6.33.72-.1l4.6-17.69"/>
          <g>
            <line class="cls-1" x1="16.39" y1="41.93" x2="42.98" y2="41.93"/>
            <line class="cls-1" x1="16.39" y1="27.97" x2="42.98" y2="27.97"/>
            <line class="cls-1" x1="16.39" y1="14" x2="42.98" y2="14"/>
            <line class="cls-1" x1="16.39" y1="55.89" x2="42.98" y2="55.89"/>
          </g>
          <g>
            <line class="cls-1" x1="57.56" y1="41.93" x2="84.16" y2="41.93"/>
            <line class="cls-1" x1="57.56" y1="27.97" x2="84.16" y2="27.97"/>
            <line class="cls-1" x1="57.56" y1="14" x2="84.16" y2="14"/>
            <line class="cls-1" x1="66.28" y1="55.89" x2="57.56" y2="55.89"/>
          </g>
          <path class="cls-1" d="M63.55,67.87c-.18-.95-.28-1.94-.28-2.94,0-3.39,1.12-6.52,3.01-9.05,2.75-3.69,7.15-6.08,12.12-6.08,5.57,0,10.43,3.01,13.06,7.49,1.32,2.24,2.07,4.85,2.07,7.63,0,2.6-.65,5.03-1.8,7.16-.15.28-.3.55-.48.83-2.41,3.88-6.53,6.58-11.32,7.06-.5.05-1.01.08-1.52.08-.15,0-.32,0-.47-.01-4.74-.14-8.94-2.46-11.6-5.99-.47-.62-.89-1.27-1.26-1.96"/>
          <path class="cls-1" d="M72.11,66.3c.68,2.63,2.86,4.66,5.58,5.12"/>
          <path class="cls-1" d="M85.91,64.51c0,.18-.01.36-.02.53v.02c-.25,3.19-2.62,5.76-5.71,6.34-.42.08-.85.12-1.29.12-.41,0-.8-.03-1.2-.11-2.72-.46-4.89-2.49-5.58-5.12-.13-.45-.2-.9-.22-1.38-.02-.13-.02-.27-.02-.4,0-3.88,3.14-7.02,7.01-7.02s7.02,3.14,7.02,7.02Z"/>
        </g>
        <circle class="cls-3" cx="82.06" cy="65.83" r="14.38"/>
      </g>
      <path class="cls-2" d="M21.24,7.12c6.3,0,9.2.3,14.33,1.83"/>
      <path class="cls-2" d="M77.14,6.73c-6.3,0-9.2.3-14.33,1.83"/>
    </g>
  </g>
</svg>