<?xml version="1.0" encoding="UTF-8"?>
<svg xmlns="http://www.w3.org/2000/svg" viewBox="0 0 100 100">
  <defs>
    <style>
      .cls-1, .cls-2 {
        stroke: #102c3c;
        stroke-linejoin: round;
      }

      .cls-1, .cls-2, .cls-3 {
        stroke-linecap: round;
      }

      .cls-1, .cls-2, .cls-3, .cls-4 {
        fill: none;
      }

      .cls-2 {
        stroke-dasharray: 0 2 2 0 7 6;
      }

      .cls-5 {
        fill: #de3340;
        mix-blend-mode: multiply;
      }

      .cls-3 {
        stroke: #102b3b;
      }

      .cls-3, .cls-4 {
        stroke-miterlimit: 10;
      }

      .cls-6 {
        isolation: isolate;
      }

      .cls-4 {
        stroke: #333;
      }
    </style>
  </defs>
  <g class="cls-6">
    <g id="Layer_1" data-name="Layer 1">
      <circle class="cls-4" cx="47.65" cy="80.79" r="2.11"/>
      <rect class="cls-1" x=".42" y="11.96" width="99.34" height="73.33" rx="3.89" ry="3.89"/>
      <path class="cls-1" d="M91.44,75.98H8.56c-1.94,0-3.52-1.4-3.52-3.13V20.03c0-1.73,1.58-3.13,3.52-3.13h82.88c1.94,0,3.52,1.4,3.52,3.13v52.82c0,1.73-1.58,3.13-3.52,3.13Z"/>
      <g>
        <circle class="cls-1" cx="58.86" cy="43.87" r="3.49"/>
        <circle class="cls-1" cx="56.24" cy="58.79" r="6.11"/>
        <circle class="cls-1" cx="25.51" cy="28.07" r="5.24"/>
        <circle class="cls-1" cx="22.89" cy="43.87" r="2.62"/>
        <line class="cls-1" x1="25.5" y1="43.9" x2="32.55" y2="43.9"/>
        <line class="cls-1" x1="50.07" y1="43.9" x2="55.37" y2="43.9"/>
        <circle class="cls-1" cx="53.53" cy="25.45" r="2.62"/>
        <circle class="cls-1" cx="29.09" cy="62.29" r="2.62"/>
        <circle class="cls-1" cx="41.31" cy="43.87" r="8.73"/>
        <line class="cls-1" x1="51.92" y1="54.47" x2="47.48" y2="50.04"/>
        <line class="cls-1" x1="29.21" y1="31.77" x2="35.14" y2="37.69"/>
        <g>
          <line class="cls-1" x1="52.09" y1="27.63" x2="46.14" y2="36.59"/>
          <line class="cls-1" x1="36.48" y1="51.14" x2="30.54" y2="60.1"/>
        </g>
      </g>
      <circle class="cls-5" cx="43.67" cy="45.3" r="9.44"/>
      <g id="g1371">
        <g id="g1373">
          <g id="g1375">
            <g id="g1381">
              <path id="path1383" class="cls-3" d="M76.49,66.39v-9.94c0-.91.74-1.73,1.65-1.78,1.02-.06,1.87.75,1.87,1.75v9.97"/>
            </g>
            <g id="g1385">
              <path id="path1387" class="cls-3" d="M80.01,66.39v-2.91c0-.91.74-1.73,1.65-1.78,1.02-.06,1.87.75,1.87,1.75v2.94"/>
            </g>
            <g id="g1389">
              <path id="path1391" class="cls-3" d="M83.52,66.39v-2.32c0-.91.74-1.73,1.65-1.78,1.02-.06,1.87.75,1.87,1.75v2.36"/>
            </g>
            <g id="g1393">
              <path id="path1395" class="cls-3" d="M87.04,66.39v-1.74c0-.91.74-1.73,1.65-1.78,1.02-.06,1.87.75,1.87,1.75v1.77"/>
            </g>
            <g id="g1397">
              <path id="path1399" class="cls-3" d="M90.55,66.39v9.47h-14.06v-1.87l-6.46-5.46c-.66-.56-.82-1.52-.38-2.27.53-.88,1.7-1.13,2.54-.54l4.3,3.01v-4.1,4.11"/>
            </g>
            <g id="g1401">
              <path id="path1403" class="cls-3" d="M88.91,62.87c-1.02-.06-1.87.75-1.87,1.75v-.56c0-.91-.74-1.73-1.65-1.78-1.02-.06-1.87.75-1.87,1.75v-.55c0-.91-.74-1.73-1.65-1.78-1.02-.06-1.87.75-1.87,1.75v-6.99c0-.91-.74-1.73-1.65-1.78-1.02-.06-1.87.75-1.87,1.75v12.29l-4.3-3.01c-.84-.59-2.01-.34-2.54.54-.45.75-.29,1.71.38,2.27l6.46,5.46v1.87h14.06v-11.21c0-.91-.74-1.73-1.65-1.78Z"/>
            </g>
            <g id="g1405">
              <path id="path1407" class="cls-3" d="M81.75,52.5c1.08.96,1.76,2.37,1.76,3.93"/>
            </g>
            <g id="g1409">
              <path id="path1411" class="cls-3" d="M72.97,56.42c0-2.91,2.36-5.27,5.27-5.27"/>
            </g>
            <g id="g1413">
              <path id="path1415" class="cls-3" d="M70.63,52.04c-.74,1.29-1.17,2.79-1.17,4.38,0,2.07.72,3.96,1.91,5.46"/>
            </g>
            <g id="g1417">
              <path id="path1419" class="cls-2" d="M83.51,49.4c-1.47-1.1-3.29-1.76-5.27-1.76s-3.8.65-5.27,1.76"/>
            </g>
            <g id="g1421">
              <path id="path1423" class="cls-3" d="M86.64,58.95c.24-.8.37-1.65.37-2.53,0-1.72-.5-3.33-1.35-4.68"/>
            </g>
          </g>
        </g>
      </g>
      <path class="cls-2" d="M86.01,20.47h3.37c.98,0,1.78.8,1.78,1.78v7.73"/>
      <path class="cls-2" d="M15.38,71.21h-3.84c-.98,0-1.78-.8-1.78-1.78v-7.73"/>
    </g>
  </g>
</svg>