<?xml version="1.0" encoding="UTF-8"?>
<svg xmlns="http://www.w3.org/2000/svg" viewBox="0 0 100 100">
  <defs>
    <style>
      .cls-1, .cls-2 {
        fill: none;
        stroke: #102c3c;
        stroke-linecap: round;
        stroke-linejoin: round;
      }

      .cls-2 {
        stroke-dasharray: 0 2 2 0 7 6;
      }

      .cls-3 {
        fill: #de3340;
        mix-blend-mode: multiply;
      }

      .cls-4 {
        isolation: isolate;
      }
    </style>
  </defs>
  <g class="cls-4">
    <g id="Layer_1" data-name="Layer 1">
      <g>
        <line class="cls-1" x1="30.2" y1="89.04" x2="14.42" y2="73.24"/>
        <g>
          <g>
            <path class="cls-1" d="M86.76,55.39V3.26c0-1.25-1.01-2.26-2.25-2.26H16.67c-1.25,0-2.25,1.01-2.25,2.26v69.99"/>
            <line class="cls-1" x1="30.2" y1="89.04" x2="52.5" y2="89.04"/>
          </g>
          <polyline class="cls-1" points="30.2 89.04 30.2 73.24 14.42 73.24"/>
        </g>
      </g>
      <g>
        <g>
          <line class="cls-1" x1="40.24" y1="13.32" x2="54.07" y2="13.32"/>
          <line class="cls-1" x1="40.24" y1="17.44" x2="74.68" y2="17.44"/>
        </g>
        <g>
          <polyline class="cls-1" points="29.03 14.32 30.79 16.34 36.03 10.3"/>
          <polyline class="cls-1" points="31.48 10.68 26.08 10.68 26.08 19.57 29.37 19.57 32.21 19.57 34.96 19.57 34.96 16.82"/>
        </g>
      </g>
      <g>
        <g>
          <line class="cls-1" x1="40.24" y1="32.54" x2="54.07" y2="32.54"/>
          <line class="cls-1" x1="40.24" y1="36.66" x2="74.68" y2="36.66"/>
        </g>
        <g>
          <polyline class="cls-1" points="29.03 33.55 30.79 35.56 36.03 29.52"/>
          <polyline class="cls-1" points="31.48 29.9 26.08 29.9 26.08 38.79 29.37 38.79 32.21 38.79 34.96 38.79 34.96 36.04"/>
        </g>
      </g>
      <g>
        <g>
          <line class="cls-1" x1="40.24" y1="51.76" x2="54.07" y2="51.76"/>
          <line class="cls-1" x1="40.24" y1="55.88" x2="74.68" y2="55.88"/>
        </g>
        <g>
          <polyline class="cls-1" points="29.03 52.77 30.79 54.78 36.03 48.74"/>
          <polyline class="cls-1" points="31.48 49.12 26.08 49.12 26.08 58.01 29.37 58.01 32.21 58.01 34.96 58.01 34.96 55.26"/>
        </g>
      </g>
      <g>
        <g>
          <polyline class="cls-1" points="63.41 64.09 57.43 64.09 57.43 93.72 79.62 93.72"/>
          <polyline class="cls-1" points="83.39 64.09 88.94 64.09 88.94 79.15"/>
          <line class="cls-1" x1="79.71" y1="64.09" x2="66.95" y2="64.09"/>
          <line class="cls-1" x1="57.43" y1="71.3" x2="88.94" y2="71.3"/>
          <g>
            <path class="cls-1" d="M65.04,68.09h0c-.9,0-1.63-.73-1.63-1.64v-4.71c0-.91.73-1.64,1.63-1.64h0c.9,0,1.63.73,1.63,1.64v4.71c0,.91-.73,1.64-1.63,1.64Z"/>
            <path class="cls-1" d="M81.34,68.09h0c-.9,0-1.63-.73-1.63-1.64v-4.71c0-.91.73-1.64,1.63-1.64h0c.9,0,1.63.73,1.63,1.64v4.71c0,.91-.73,1.64-1.63,1.64Z"/>
          </g>
          <g>
            <g>
              <line class="cls-1" x1="70.17" y1="77.08" x2="70.14" y2="77.08"/>
              <line class="cls-1" x1="70.17" y1="82.51" x2="70.14" y2="82.51"/>
              <line class="cls-1" x1="70.17" y1="87.94" x2="70.14" y2="87.94"/>
            </g>
            <g>
              <line class="cls-1" x1="76.23" y1="77.08" x2="76.21" y2="77.08"/>
              <line class="cls-1" x1="76.23" y1="82.51" x2="76.21" y2="82.51"/>
              <line class="cls-1" x1="76.23" y1="87.94" x2="76.21" y2="87.94"/>
            </g>
            <line class="cls-1" x1="82.3" y1="77.08" x2="82.27" y2="77.08"/>
            <g>
              <line class="cls-1" x1="64.1" y1="82.51" x2="64.08" y2="82.51"/>
              <line class="cls-1" x1="64.1" y1="87.94" x2="64.08" y2="87.94"/>
            </g>
          </g>
        </g>
        <g>
          <circle class="cls-1" cx="88.86" cy="89.3" r="9.82" transform="translate(-27.65 137.22) rotate(-67.5)"/>
          <polyline class="cls-1" points="88.86 83.99 88.86 89.19 92.77 92.1"/>
        </g>
      </g>
      <path class="cls-3" d="M87.11,62.92v15.4h-.08c-5.42,0-9.82,4.4-9.82,9.82,0,1.58.38,3.08,1.05,4.41h-22.66v-29.63h5.98v-2.35c0-.91.73-1.64,1.63-1.64s1.63.73,1.63,1.64v2.35h13.04v-2.35c0-.91.73-1.64,1.63-1.64s1.63.73,1.63,1.64v2.35h5.97Z"/>
      <path class="cls-2" d="M74.98,8.03h4.3c.93,0,1.68.69,1.68,1.53v6.65"/>
      <line class="cls-2" x1="29.91" y1="68.57" x2="15.66" y2="68.57"/>
    </g>
  </g>
</svg>