<svg width="35" height="33" viewBox="0 0 35 33" fill="none" xmlns="http://www.w3.org/2000/svg">
<path d="M34.2494 20.065V32.7273H26.9084V20.9127C26.9084 17.9441 25.8462 15.9192 23.1898 15.9192C21.1615 15.9192 19.9535 17.2851 19.4232 18.6047C19.2293 19.0766 19.1796 19.7338 19.1796 20.3945V32.7273H11.8352C11.8352 32.7273 11.9347 12.7189 11.8352 10.6443H19.1796V13.7742L19.1315 13.8463H19.1796V13.7742C20.1542 12.2727 21.896 10.126 25.7964 10.126C30.6269 10.126 34.2494 13.2834 34.2494 20.065ZM4.1544 0C1.64391 0 0 1.64735 0 3.81464C0 5.93388 1.59587 7.63099 4.05831 7.63099H4.10635C6.66832 7.63099 8.25904 5.93388 8.25904 3.81464C8.21442 1.64735 6.66832 0 4.1544 0ZM0.43586 32.7273H7.77685V10.6443H0.43586V32.7273Z" fill="white"/>
</svg>
