<svg width="23" height="25" viewBox="0 0 23 25" fill="none" xmlns="http://www.w3.org/2000/svg">
<path d="M22 14.3029V22.0667H17.4989V14.8226C17.4989 13.0024 16.8476 11.7609 15.2188 11.7609C13.9752 11.7609 13.2345 12.5984 12.9094 13.4075C12.7905 13.6968 12.76 14.0998 12.76 14.5049V22.0667H8.25673C8.25673 22.0667 8.31775 9.79859 8.25673 8.52653H12.76V10.4457L12.7305 10.4899H12.76V10.4457C13.3576 9.52503 14.4255 8.20878 16.8171 8.20878C19.7789 8.20878 22 10.1447 22 14.3029ZM3.54727 2C2.00797 2 1 3.01007 1 4.33894C1 5.63836 1.97851 6.67894 3.48835 6.67894H3.51781C5.08868 6.67894 6.06403 5.63836 6.06403 4.33894C6.03668 3.01007 5.08868 2 3.54727 2ZM1.26725 22.0667H5.76838V8.52653H1.26725V22.0667Z" fill="#717171"/>
</svg>
