<?xml version="1.0" encoding="UTF-8"?>
<svg xmlns="http://www.w3.org/2000/svg" viewBox="0 0 100 100">
  <defs>
    <style>
      .cls-1, .cls-2 {
        fill: none;
        stroke: #102c3c;
        stroke-linecap: round;
        stroke-linejoin: round;
      }

      .cls-2 {
        stroke-dasharray: 0 2 2 0 7 6;
      }

      .cls-3 {
        fill: #de3340;
        mix-blend-mode: multiply;
      }

      .cls-4 {
        isolation: isolate;
      }
    </style>
  </defs>
  <g class="cls-4">
    <g id="Layer_1" data-name="Layer 1">
      <g>
        <g>
          <path class="cls-1" d="M9.32,80.35h16.02c4.59,0,8.32,3.73,8.32,8.32v10.33H1v-10.33c0-4.59,3.73-8.32,8.32-8.32Z"/>
          <path class="cls-1" d="M25.39,72.29c0,4.45-3.61,8.06-8.06,8.06s-8.06-3.61-8.06-8.06,3.61-8.06,8.06-8.06,8.06,3.61,8.06,8.06Z"/>
        </g>
        <g>
          <path class="cls-1" d="M41.99,80.35h16.02c4.59,0,8.32,3.73,8.32,8.32v10.33h-32.67v-10.33c0-4.59,3.73-8.32,8.32-8.32Z"/>
          <path class="cls-1" d="M58.06,72.29c0,4.45-3.61,8.06-8.06,8.06s-8.06-3.61-8.06-8.06,3.61-8.06,8.06-8.06,8.06,3.61,8.06,8.06Z"/>
        </g>
        <g>
          <path class="cls-1" d="M74.66,80.35h16.02c4.59,0,8.32,3.73,8.32,8.32v10.33h-32.67v-10.33c0-4.59,3.73-8.32,8.32-8.32Z"/>
          <path class="cls-1" d="M90.73,72.29c0,4.45-3.61,8.06-8.06,8.06s-8.06-3.61-8.06-8.06,3.61-8.06,8.06-8.06,8.06,3.61,8.06,8.06Z"/>
        </g>
      </g>
      <g>
        <path class="cls-1" d="M58.7,10.59c0,5.3-4.29,9.59-9.59,9.59s-9.59-4.29-9.59-9.59S43.81,1,49.11,1s9.59,4.29,9.59,9.59Z"/>
        <rect class="cls-1" x="16.02" y="46.43" width="66.18" height="7.79"/>
        <line class="cls-1" x1="77.99" y1="59.77" x2="77.99" y2="54.22"/>
        <line class="cls-1" x1="20.23" y1="59.77" x2="20.23" y2="54.22"/>
        <polyline class="cls-1" points="40.64 38.82 40.64 28.67 57.58 28.67 57.58 38.82"/>
        <path class="cls-1" d="M49.11,20.18h10.52c6.55,0,11.87,5.31,11.87,11.87v9.64c0,2.62-2.13,4.75-4.75,4.75h-9.5c-2.1,0-3.8-1.7-3.8-3.8h0c0-2.1,1.7-3.8,3.8-3.8h6.07v-7.5"/>
        <path class="cls-1" d="M49.11,20.18h-10.52c-6.55,0-11.87,5.31-11.87,11.87v9.64c0,2.62,2.13,4.75,4.75,4.75h9.5c2.1,0,3.8-1.7,3.8-3.8h0c0-2.1-1.7-3.8-3.8-3.8h-6.07v-7.5"/>
        <rect class="cls-3" x="17.98" y="47.96" width="66" height="8.67"/>
      </g>
      <line class="cls-2" x1="30.77" y1="95.74" x2="16.52" y2="95.74"/>
      <line class="cls-2" x1="62.47" y1="95.74" x2="48.22" y2="95.74"/>
      <line class="cls-2" x1="95.47" y1="95.74" x2="81.22" y2="95.74"/>
      <path class="cls-2" d="M52.78,15.21c-1.4,1.61-3.67,2.11-5.45,1.07-.82-.48-1.41-1.21-1.74-2.06"/>
    </g>
  </g>
</svg>