<?xml version="1.0" encoding="UTF-8"?>
<svg xmlns="http://www.w3.org/2000/svg" viewBox="0 0 100 100">
  <defs>
    <style>
      .cls-1, .cls-2 {
        fill: none;
        stroke: #102c3c;
        stroke-linecap: round;
        stroke-linejoin: round;
      }

      .cls-2 {
        stroke-dasharray: 0 2 2 0 7 6;
      }

      .cls-3 {
        fill: #de3340;
        mix-blend-mode: multiply;
      }

      .cls-4 {
        isolation: isolate;
      }
    </style>
  </defs>
  <g class="cls-4">
    <g id="Layer_1" data-name="Layer 1">
      <g>
        <g id="g147">
          <g id="g149">
            <g id="g151">
              <g id="g161">
                <path id="path163" class="cls-1" d="M69.88,86.84l-38.14,6.54-16.88,2.9c-.58.1-1.14-.3-1.25-.88l-6.23-36.37L.52,18.99c-.1-.59.29-1.14.87-1.25l19.24-3.3"/>
              </g>
              <g id="g165">
                <path id="path167" class="cls-1" d="M86.58,71.3v14.41c0,.62-.5,1.13-1.12,1.13H21.75c-.62,0-1.12-.51-1.12-1.13V4.83c0-.62.5-1.12,1.12-1.12h50.9c.34,0,.44.14,1.02.69l12.28,11.71c.5.48.63.54.63.86v25.34"/>
              </g>
              <g id="g169">
                <path id="path171" class="cls-1" d="M71.81,3.71l.02,11.11c0,2.48,2.28,2.33,3.37,2.33h11.38"/>
              </g>
              <g id="g173">
                <path id="path175" class="cls-1" d="M76.46,26.62H31.39"/>
              </g>
              <g id="g177">
                <path id="path179" class="cls-1" d="M76.46,37.82H31.39"/>
              </g>
              <g id="g181">
                <path id="path183" class="cls-1" d="M76.46,49.02H31.39"/>
              </g>
              <g id="g185">
                <path id="path187" class="cls-1" d="M76.46,60.22H31.39"/>
              </g>
              <g id="g189">
                <path id="path191" class="cls-1" d="M67.15,71.42H31.39"/>
              </g>
            </g>
          </g>
        </g>
        <g>
          <g id="g677">
            <path id="path679" class="cls-1" d="M89.73,41.58l6.8,3.51-16.51,32.02-6.8-3.51,16.51-32.02Z"/>
          </g>
          <g id="g681">
            <path id="path683" class="cls-1" d="M96.53,45.09l-6.8-3.51,1.18-2.28c.97-1.88,3.28-2.62,5.15-1.65h0c1.88.97,2.62,3.28,1.65,5.15l-1.18,2.28Z"/>
          </g>
          <g id="g685">
            <path id="path687" class="cls-1" d="M73.22,73.6l-.57,9.45,7.37-5.94"/>
          </g>
        </g>
        <path class="cls-3" d="M97.43,38.96c-1.88-.97-4.19-.23-5.15,1.65l-1.18,2.28-16.51,32.02h0l-.57,9.45,7.37-5.94h0l16.51-32.02,1.18-2.28c.97-1.88.23-4.19-1.65-5.15Z"/>
      </g>
      <line class="cls-2" x1="38.26" y1="9.35" x2="24.01" y2="9.35"/>
      <line class="cls-2" x1="17.12" y1="21.42" x2="3.02" y2="23.49"/>
    </g>
  </g>
</svg>